<svg width="400" height="300" viewBox="0 0 400 300" fill="none" xmlns="http://www.w3.org/2000/svg">
<rect width="400" height="300" fill="#F3F4F6"/>
<path d="M200 120C194.477 120 190 124.477 190 130V170C190 175.523 194.477 180 200 180C205.523 180 210 175.523 210 170V130C210 124.477 205.523 120 200 120Z" fill="#9CA3AF"/>
<path d="M180 150C174.477 150 170 154.477 170 160C170 165.523 174.477 170 180 170C185.523 170 190 165.523 190 160C190 154.477 185.523 150 180 150Z" fill="#9CA3AF"/>
<path d="M220 150C214.477 150 210 154.477 210 160C210 165.523 214.477 170 220 170C225.523 170 230 165.523 230 160C230 154.477 225.523 150 220 150Z" fill="#9CA3AF"/>
<text x="200" y="220" text-anchor="middle" fill="#6B7280" font-family="Arial, sans-serif" font-size="14">No Image Available</text>
</svg>
